<svg width="48" height="48" viewBox="0 0 48 48" fill="none" xmlns="http://www.w3.org/2000/svg">
<path d="M30 45.5H18C7.14 45.5 2.5 40.86 2.5 30V18C2.5 7.14 7.14 2.5 18 2.5H30C40.86 2.5 45.5 7.14 45.5 18V30C45.5 40.86 40.86 45.5 30 45.5ZM18 5.5C8.78 5.5 5.5 8.78 5.5 18V30C5.5 39.22 8.78 42.5 18 42.5H30C39.22 42.5 42.5 39.22 42.5 30V18C42.5 8.78 39.22 5.5 30 5.5H18Z" fill="#DADFE6"/>
<path d="M18 21.5C14.96 21.5 12.5 19.04 12.5 16C12.5 12.96 14.96 10.5 18 10.5C21.04 10.5 23.5 12.96 23.5 16C23.5 19.04 21.04 21.5 18 21.5ZM18 13.5C16.62 13.5 15.5 14.62 15.5 16C15.5 17.38 16.62 18.5 18 18.5C19.38 18.5 20.5 17.38 20.5 16C20.5 14.62 19.38 13.5 18 13.5Z" fill="#DADFE6"/>
<path d="M5.3415 39.4C4.8615 39.4 4.3815 39.16 4.1015 38.74C3.6415 38.06 3.8215 37.12 4.5215 36.66L14.3815 30.04C16.5415 28.58 19.5215 28.76 21.4815 30.42L22.1415 31C23.1415 31.86 24.8415 31.86 25.8215 31L34.1415 23.86C36.2615 22.04 39.6015 22.04 41.7415 23.86L45.0015 26.66C45.6215 27.2 45.7015 28.14 45.1615 28.78C44.6215 29.4 43.6815 29.48 43.0415 28.94L39.7815 26.14C38.7815 25.28 37.0815 25.28 36.0815 26.14L27.7615 33.28C25.6415 35.1 22.3015 35.1 20.1615 33.28L19.5015 32.7C18.5815 31.92 17.0615 31.84 16.0415 32.54L6.1815 39.16C5.9215 39.32 5.6215 39.4 5.3415 39.4Z" fill="#DADFE6"/>
</svg>
